 <svg  version="1.0" xmlns="http://www.w3.org/2000/svg"  width="300.000000pt" height="300.000000pt" viewBox="0 0 300.000000 300.000000"  preserveAspectRatio="xMidYMid meet">  <g transform="translate(0.000000,300.000000) scale(0.100000,-0.100000)" fill="#48478a" stroke="none"> <path d="M1340 2944 c-86 -11 -242 -49 -329 -80 -477 -173 -821 -569 -932 -1074 -31 -141 -34 -418 -5 -555 40 -193 117 -381 219 -537 31 -47 63 -90 70 -97 12 -9 12 -19 -4 -65 -32 -99 -116 -250 -171 -313 -11 -12 -18 -31 -16 -45 3 -23 5 -23 113 -22 142 1 297 36 414 93 43 20 44 20 70 2 83 -59 287 -138 441 -172 89 -20 134 -23 290 -23 157 0 201 3 290 23 578 128 1003 553 1131 1131 20 89 23 134 24 290 0 158 -4 200 -23 289 -129 578 -562 1011 -1132 1133 -92 19 -362 33 -450 22z m415 -43 c22 -6 56 -14 75 -17 49 -8 235 -76 300 -109 286 -145 516 -379 653 -665 68 -141 108 -274 128 -428 13 -100 6 -372 -11 -442 -7 -25 -13 -53 -16 -64 -53 -262 -227 -551 -449 -743 -198 -173 -407 -275 -680 -335 -78 -17 -444 -17 -500 -1 -22 7 -53 15 -70 17 -95 17 -230 67 -350 129 -94 49 -98 50 -144 30 -139 -59 -268 -89 -400 -92 -92 -3 -92 -2 -40 79 86 133 139 251 139 310 0 29 -14 58 -66 134 -103 152 -176 323 -216 501 -18 82 -22 132 -23 280 0 182 4 225 31 344 24 103 38 143 104 286 185 401 605 718 1050 790 97 16 419 13 485 -4z"/> <path d="M1441 2446 c-37 -21 -50 -55 -51 -133 0 -39 -3 -79 -6 -88 -4 -9 -28 -27 -54 -40 -65 -33 -107 -71 -131 -116 -22 -43 -29 -46 -145 -52 -139 -8 -290 -89 -373 -199 -29 -40 -41 -48 -68 -48 -92 0 -190 -66 -218 -148 -22 -65 -21 -379 1 -445 28 -83 119 -147 211 -147 26 0 41 -11 88 -65 91 -103 200 -164 335 -185 40 -6 239 -9 510 -7 l445 4 78 26 c94 33 180 89 233 152 60 73 63 75 97 76 72 1 113 19 164 69 56 55 65 105 61 323 -3 187 -4 193 -30 238 -32 55 -99 95 -177 105 -43 6 -60 13 -82 38 -98 110 -137 140 -237 181 -43 17 -91 27 -145 31 -119 8 -124 10 -146 53 -24 46 -66 83 -132 117 -27 13 -50 30 -50 37 -1 6 -3 43 -5 81 -1 38 -8 82 -15 98 -21 52 -103 75 -158 44z m130 -25 c28 -29 29 -32 29 -131 0 -87 2 -101 18 -106 9 -3 41 -17 70 -31 59 -29 99 -73 108 -121 l7 -32 74 0 c101 0 200 -24 270 -66 65 -39 134 -103 164 -150 18 -30 23 -32 89 -36 85 -5 143 -40 178 -108 21 -41 22 -57 22 -237 0 -152 -3 -202 -15 -231 -34 -79 -101 -122 -192 -122 -53 0 -60 -3 -75 -27 -52 -88 -180 -178 -293 -208 -87 -22 -963 -22 -1050 0 -113 30 -241 120 -293 207 -15 25 -22 28 -75 28 -91 0 -158 43 -192 122 -12 29 -15 79 -15 231 0 180 1 196 23 237 34 69 92 103 178 108 64 4 71 7 84 32 24 46 136 142 200 171 77 34 148 49 239 49 72 0 74 1 79 28 11 55 50 96 124 132 l72 35 1 98 c0 95 1 99 29 128 23 23 38 29 71 29 33 0 48 -6 71 -29z"/> <path d="M1067 1739 c-97 -23 -190 -101 -235 -197 -23 -48 -27 -71 -27 -142 0 -76 4 -93 33 -152 38 -77 92 -130 171 -167 l56 -26 435 0 435 0 67 33 c77 38 130 92 167 171 22 47 26 70 26 141 0 71 -4 94 -27 142 -34 73 -103 142 -176 176 l-57 27 -415 2 c-228 1 -432 -3 -453 -8z m896 -49 c74 -28 130 -79 166 -152 27 -52 31 -72 31 -138 0 -132 -65 -230 -190 -289 l-55 -26 -415 0 -415 0 -60 28 c-78 37 -121 78 -156 152 -24 50 -29 73 -29 136 0 65 5 85 31 137 36 72 92 124 163 151 48 19 79 20 463 20 389 1 415 0 466 -19z"/> <path d="M1072 1520 c-131 -31 -121 -220 12 -246 98 -18 179 113 119 194 -17 23 -77 62 -93 60 -3 0 -20 -4 -38 -8z m79 -35 c56 -30 66 -109 20 -156 -83 -83 -214 17 -157 120 27 48 84 63 137 36z"/> <path d="M1872 1519 c-44 -9 -80 -44 -93 -90 -22 -72 44 -155 121 -153 65 2 114 46 123 109 11 85 -65 153 -151 134z m77 -33 c57 -30 68 -110 22 -157 -63 -63 -171 -20 -171 68 1 79 78 125 149 89z"/> <path d="M1340 1338 c-23 -38 -19 -61 19 -102 57 -62 143 -81 216 -47 89 41 121 109 75 159 -26 27 -66 28 -105 2 -38 -25 -56 -25 -88 0 -14 12 -40 20 -61 20 -30 0 -40 -5 -56 -32z m106 -13 c16 -14 40 -25 54 -25 14 0 38 11 54 25 34 29 58 32 81 9 25 -26 14 -64 -28 -98 -35 -28 -46 -31 -107 -31 -61 0 -72 3 -107 31 -44 36 -56 80 -27 101 26 19 47 16 80 -12z"/> </g> </svg> 